<?xml version="1.0" encoding="UTF-8" standalone="no"?>
<svg
   xmlns:dc="http://purl.org/dc/elements/1.1/"
   xmlns:cc="http://creativecommons.org/ns#"
   xmlns:rdf="http://www.w3.org/1999/02/22-rdf-syntax-ns#"
   xmlns:svg="http://www.w3.org/2000/svg"
   xmlns="http://www.w3.org/2000/svg"
   xmlns:sodipodi="http://sodipodi.sourceforge.net/DTD/sodipodi-0.dtd"
   xmlns:inkscape="http://www.inkscape.org/namespaces/inkscape"
   inkscape:export-ydpi="90"
   inkscape:export-xdpi="90"
   inkscape:export-filename="C:\Users\Usuario\Dropbox\proyectos\UXBOX\PENPOT\logo\penpot-logo-black.png"
   sodipodi:docname="penpot-logo-black.svg"
   inkscape:version="0.92.5 (2060ec1f9f, 2020-04-08)"
   version="1.1"
   id="svg2"
   viewBox="0 0 1117.7224 345.94144"
   height="97.632362mm"
   width="315.44611mm">
  <defs
     id="defs4" />
  <sodipodi:namedview
     inkscape:document-rotation="0"
     fit-margin-bottom="0"
     fit-margin-right="0"
     fit-margin-left="0"
     fit-margin-top="0"
     borderlayer="true"
     inkscape:window-maximized="1"
     inkscape:window-y="54"
     inkscape:window-x="0"
     inkscape:window-height="2032"
     inkscape:window-width="3840"
     showgrid="false"
     inkscape:current-layer="layer1"
     inkscape:document-units="px"
     inkscape:cy="169.5305"
     inkscape:cx="579.2657"
     inkscape:zoom="1.4"
     inkscape:pageshadow="2"
     inkscape:pageopacity="0.0"
     borderopacity="1.0"
     bordercolor="#666666"
     pagecolor="#ffffff"
     id="base" />
  <metadata
     id="metadata7">
    <rdf:RDF>
      <cc:Work
         rdf:about="">
        <dc:format>image/svg+xml</dc:format>
        <dc:type
           rdf:resource="http://purl.org/dc/dcmitype/StillImage" />
        <dc:title />
      </cc:Work>
    </rdf:RDF>
  </metadata>
  <g
     transform="translate(770.31817,-69.494271)"
     id="layer1"
     inkscape:groupmode="layer"
     inkscape:label="Capa 1">
    <path
       style="color:#000000;font-style:normal;font-variant:normal;font-weight:normal;font-stretch:normal;font-size:medium;line-height:normal;font-family:sans-serif;text-indent:0;text-align:start;text-decoration:none;text-decoration-line:none;text-decoration-style:solid;text-decoration-color:#000000;letter-spacing:normal;word-spacing:normal;text-transform:none;writing-mode:lr-tb;direction:ltr;baseline-shift:baseline;text-anchor:start;white-space:normal;clip-rule:nonzero;display:inline;overflow:visible;visibility:visible;opacity:1;isolation:auto;mix-blend-mode:normal;color-interpolation:sRGB;color-interpolation-filters:linearRGB;solid-color:#000000;solid-opacity:1;fill:#000000;fill-opacity:1;fill-rule:nonzero;stroke:none;stroke-width:12.78144073;stroke-linecap:butt;stroke-linejoin:miter;stroke-miterlimit:4;stroke-dasharray:none;stroke-dashoffset:0;stroke-opacity:1;color-rendering:auto;image-rendering:auto;shape-rendering:auto;text-rendering:auto;enable-background:accumulate"
       d="M 72.873047 0 L 34.070312 54.652344 L 34.070312 85.544922 L 0.3046875 101.60547 L 0 101.46289 L 0 114.1582 L 0 303.01172 L 131.64648 365.20703 L 139.69141 369.00391 L 147.73633 365.20703 L 279.38281 303.01172 L 279.38281 101.46289 L 279.13477 101.58008 L 245.35938 85.513672 L 245.35938 54.652344 L 244.17773 52.990234 L 206.55469 0 L 167.75 54.652344 L 167.75 54.707031 L 139.51367 14.939453 L 111.49805 54.400391 L 110.49609 52.990234 L 72.873047 0 z M 79.738281 31.746094 L 94.746094 52.882812 L 51 52.882812 L 65.833984 31.994141 L 79.738281 31.746094 z M 213.41797 31.746094 L 228.42773 52.882812 L 184.68164 52.882812 L 199.51172 31.994141 L 213.41797 31.746094 z M 146.37891 46.6875 L 161.38672 67.822266 L 117.64453 67.822266 L 132.47461 46.933594 L 146.37891 46.6875 z M 46.851562 63.535156 L 67.599609 63.535156 L 67.599609 133.39844 L 46.851562 123.5957 L 46.851562 63.535156 z M 78.251953 63.535156 L 98.896484 63.535156 L 98.896484 148.18164 L 78.251953 138.42969 L 78.251953 63.535156 z M 180.53516 63.535156 L 201.28125 63.535156 L 201.28125 138.35742 L 180.53516 148.1582 L 180.53516 63.535156 z M 211.93164 63.535156 L 232.57422 63.535156 L 232.57422 123.57227 L 211.93164 133.32422 L 211.93164 63.535156 z M 113.49414 78.474609 L 134.24219 78.474609 L 134.24219 164.87891 L 113.49414 155.07617 L 113.49414 78.474609 z M 144.89453 78.474609 L 165.53711 78.474609 L 165.53711 155.24414 L 144.89453 164.99805 L 144.89453 78.474609 z M 1131.1602 86.101562 L 1131.0586 124.99609 L 1110.2012 124.85352 L 1110.2012 140.70117 L 1131.1191 140.70117 L 1131.1191 224.25586 C 1131.1191 230.34169 1131.5933 235.98549 1132.5566 241.1875 L 1132.5664 241.23242 L 1132.5742 241.2793 C 1133.7551 246.59328 1135.7512 251.22615 1138.5996 255.0918 C 1141.4719 258.98993 1145.3155 261.98634 1149.9551 264.00977 C 1154.6879 266.26061 1160.4468 267.3125 1167.2031 267.3125 C 1170.283 267.3125 1173.8086 266.8098 1177.8496 265.84766 C 1181.8687 264.89072 1185.8806 263.64918 1189.8867 262.12305 L 1192.2363 261.22656 L 1187.168 246.0293 L 1184.5098 247.25586 C 1179.3471 249.49332 1174.2878 251.16739 1168.877 251.19727 C 1164.5174 251.19727 1161.0914 250.57059 1158.582 249.49023 C 1156.1873 248.19456 1154.3367 246.56997 1152.9316 244.55273 C 1151.4641 242.2597 1150.3871 239.62259 1149.7051 236.5918 C 1149.1806 233.23969 1148.9063 229.50384 1148.9062 225.37305 L 1148.9062 140.70117 L 1187.6719 140.70117 L 1187.6719 124.86719 L 1148.9062 124.86719 L 1148.9062 86.101562 L 1131.1602 86.101562 z M 245.35547 101.43555 L 263.62305 108.9043 L 245.35547 117.5332 L 245.35547 101.43555 z M 34.070312 101.46289 L 34.070312 117.55859 L 15.806641 108.92969 L 34.070312 101.46289 z M 890.07422 121.51562 L 890.07617 121.51758 L 890.07617 121.51953 C 881.28292 121.51953 872.74885 123.68447 864.59961 127.95312 L 864.58789 127.96094 L 864.57617 127.9668 C 857.99208 131.49971 852.49761 135.18813 846.7207 139.54688 L 846.61719 124.86719 L 829.45117 124.86719 L 829.45117 324.48438 L 846.95898 324.48438 L 846.95898 253.13086 C 852.69642 257.04476 858.36392 260.43757 863.91406 262.9043 L 863.94141 262.91602 L 863.9707 262.92969 C 870.93404 265.83107 877.79354 267.3125 884.5 267.3125 C 892.66204 267.3125 900.48559 265.65128 907.87891 262.34375 L 907.89258 262.33789 L 907.9082 262.33008 C 915.48777 258.83182 922.12012 253.85429 927.74023 247.45898 L 927.73438 247.46094 C 933.55415 240.86517 938.09012 232.93407 941.34766 223.73633 C 944.62485 214.48306 946.23828 204.0473 946.23828 192.46289 C 946.23828 171.2737 941.69293 154.13403 932.36133 141.29492 L 932.35742 141.28906 C 922.9517 128.16449 908.52892 121.51564 890.07422 121.51562 z M 466.07617 121.51758 L 466.07617 121.51953 C 457.28292 121.51953 448.74885 123.68447 440.59961 127.95312 L 440.58789 127.96094 L 440.57617 127.9668 C 433.99208 131.49971 428.49761 135.19009 422.7207 139.54883 L 422.61719 124.86719 L 405.45117 124.86719 L 405.45117 324.48633 L 422.95898 324.48633 L 422.95898 253.13281 C 428.69642 257.04671 434.36391 260.43757 439.91406 262.9043 L 439.94141 262.91797 L 439.9707 262.93164 C 446.93404 265.83303 453.79354 267.31445 460.5 267.31445 C 468.66204 267.31445 476.48559 265.65323 483.87891 262.3457 L 483.89258 262.33789 L 483.9082 262.33203 C 491.48777 258.83377 498.12011 253.85624 503.74023 247.46094 L 503.73438 247.46289 C 509.55415 240.86712 514.09012 232.93602 517.34766 223.73828 C 520.62485 214.48501 522.23828 204.04925 522.23828 192.46484 C 522.23828 171.27565 517.69293 154.13598 508.36133 141.29688 L 508.35742 141.29102 C 498.95204 128.16691 484.52992 121.51806 466.07617 121.51758 z M 751.13867 121.51758 L 751.13867 121.51953 C 741.41715 121.51953 732.60456 123.97931 724.93164 128.89062 C 718.66695 132.74734 712.59655 137.66054 706.64648 143.23242 L 706.76953 124.86719 L 689.95312 124.86719 L 689.95312 263.9668 L 707.46484 263.9668 L 707.46484 163.03906 C 715.23389 155.17408 722.23012 147.72516 728.27148 143.92773 L 728.29297 143.91211 L 728.31445 143.89844 C 734.41013 139.89272 741.10148 137.91406 748.62891 137.91406 C 759.05049 137.91406 765.77006 140.99126 769.88281 147.07812 L 769.90625 147.11133 L 769.93164 147.14648 C 774.24648 153.12088 776.68555 163.10608 776.68555 177.12695 L 776.68555 263.9668 L 794.19531 263.9668 L 794.19531 175.45117 C 794.19531 157.6497 790.93266 144.14417 783.88281 135.08008 C 776.81893 125.99794 765.60649 121.51758 751.13867 121.51758 z M 607.16797 121.51953 C 599.34794 121.51953 591.69816 123.28911 584.32031 126.7793 C 584.31605 126.78143 584.31286 126.78302 584.30859 126.78516 C 577.09437 130.10201 570.57515 134.97924 564.79102 141.3418 L 564.78906 141.34375 C 559.14997 147.56619 554.62131 155.20572 551.17773 164.19727 L 551.16797 164.2207 L 551.16016 164.24414 C 547.88029 173.31202 546.26172 183.47451 546.26172 194.69531 C 546.26172 205.91611 547.88029 216.08057 551.16016 225.14844 L 551.16992 225.17969 L 551.18359 225.21094 C 554.63262 234.02515 559.26063 241.66014 565.07031 248.05078 L 565.08594 248.06445 L 565.09766 248.08008 C 570.91424 254.28444 577.74153 259.06539 585.50586 262.36523 L 585.51562 262.36914 L 585.52734 262.37305 C 593.4702 265.66642 601.91802 267.3125 610.79297 267.3125 C 620.8819 267.3125 629.31084 265.90437 636.08789 262.91992 L 636.10156 262.91211 C 642.69143 260.08721 648.73438 257.0664 654.22852 253.8457 L 656.39453 252.57812 L 648.77344 238.18555 L 646.32422 240 C 641.50628 243.56884 636.75385 245.78833 631.0332 247.93555 C 625.60162 249.85943 618.9027 250.8457 611.9082 250.8457 C 604.62038 250.8457 598.14871 250.15364 592.39453 247.54492 C 586.58139 244.72299 581.59671 240.95805 577.37305 236.2168 C 573.32823 231.28275 570.13786 225.45741 567.81641 218.67383 C 567.81566 218.67169 567.81569 218.66904 567.81445 218.66797 C 565.75599 212.48614 564.67276 205.79119 564.29492 198.71289 L 660.82812 198.71289 C 660.82812 195.98425 661.08991 193.36276 661.09961 191.07227 L 661.09961 186.05273 C 661.09961 165.9417 656.43413 150.00926 646.81641 138.625 C 637.21882 127.26458 623.74588 121.52148 607.16797 121.52148 L 607.16797 121.51953 z M 1031.4961 121.51953 C 1023.1571 121.51979 1015.1575 123.17724 1007.584 126.47852 C 1000.0068 129.7814 993.28319 134.56015 987.47656 140.75391 L 987.46289 140.76953 L 987.44531 140.78516 C 981.79711 147.01766 977.2679 154.75757 973.82617 163.93555 L 973.82031 163.94922 L 973.81445 163.96484 C 970.53255 173.03831 968.91797 183.29278 968.91797 194.69531 C 968.91797 206.09784 970.53255 216.35426 973.81445 225.42773 L 973.82617 225.45898 L 973.83984 225.49023 C 977.28522 234.29511 981.81338 241.83645 987.44336 248.04883 L 987.45898 248.0625 L 987.47461 248.08008 C 993.28123 254.27384 1000.0029 259.05062 1007.5801 262.35352 C 1015.1542 265.65504 1023.1564 267.3125 1031.4961 267.3125 C 1039.8358 267.3125 1047.8361 265.65504 1055.4102 262.35352 C 1063.1653 259.05402 1069.9007 254.27256 1075.5312 248.06445 C 1081.3597 241.84343 1085.9028 234.28087 1089.166 225.45508 C 1092.641 216.3737 1094.3535 206.10476 1094.3535 194.69531 C 1094.3535 183.29018 1092.6422 173.02609 1089.1699 163.94727 C 1085.9114 154.75953 1081.3724 147.00387 1075.5293 140.76758 C 1069.8991 134.56056 1063.1644 129.77763 1055.4102 126.47852 C 1047.8366 123.17725 1039.8371 121.51979 1031.498 121.51953 L 1031.4961 121.51953 z M 16.087891 126.85742 L 131.64648 181.44727 L 131.64648 347.41016 L 16.087891 292.82031 L 16.087891 126.85742 z M 263.29297 126.85742 L 263.29297 292.82031 L 147.73633 347.41016 L 147.73633 181.44727 L 263.29297 126.85742 z M 607.44336 137.35547 L 607.44531 137.35547 C 618.91205 137.35547 627.55452 141.24559 634.15234 149.23242 L 634.1582 149.24414 L 634.16602 149.25586 C 640.29722 156.5165 643.63812 167.93403 644.00195 183.43164 L 564.49414 183.43164 C 565.32539 176.87105 566.70625 170.84675 568.86719 165.59375 C 571.54937 159.52493 574.82604 154.40627 578.68359 150.19336 C 582.73715 145.96909 587.16914 142.8519 592.02344 140.77148 L 592.05859 140.75391 L 592.09375 140.73828 C 596.96453 138.47684 602.04607 137.35547 607.44336 137.35547 z M 464.125 137.63281 L 464.125 137.63477 C 471.4069 137.63477 477.44644 139.04904 482.38086 141.77148 L 482.41211 141.78711 L 482.44336 141.80469 C 487.44064 144.38949 491.43328 148.03837 494.54883 152.88477 L 494.5625 152.9043 L 494.57422 152.92188 C 497.70548 157.61876 500.00989 163.33505 501.44141 170.13477 L 501.44727 170.16797 L 501.45703 170.19922 C 503.07806 177.04348 503.89648 184.46304 503.89648 192.46484 C 503.89648 201.34318 502.71865 209.43544 500.39258 216.77148 L 500.38477 216.79102 L 500.37891 216.81055 C 498.22444 223.99215 495.19863 230.11035 491.32031 235.22266 C 487.44799 240.32709 482.83853 244.23266 477.42383 247.02734 C 472.02761 249.8125 466.24638 251.19727 459.94141 251.19727 C 455.1723 251.19727 449.52222 249.99039 443.04297 247.4707 C 436.97646 245.1115 430.23226 239.31407 422.96094 233.54492 L 422.96094 159.45117 C 430.6728 152.87918 437.8667 146.64366 444.42969 143.18945 L 444.43945 143.18555 L 444.45117 143.17773 C 451.40574 139.43298 457.94131 137.63281 464.125 137.63281 z M 888.12305 137.63281 L 888.125 137.63477 C 895.4069 137.63477 901.44644 139.04904 906.38086 141.77148 L 906.41211 141.78711 L 906.44336 141.80469 C 911.44064 144.38949 915.43328 148.03837 918.54883 152.88477 L 918.5625 152.9043 L 918.57422 152.92188 C 921.70548 157.61876 924.00989 163.33505 925.44141 170.13477 L 925.44727 170.16797 L 925.45703 170.19922 C 927.07806 177.04348 927.89648 184.46304 927.89648 192.46484 C 927.89648 201.34318 926.71865 209.43544 924.39258 216.77148 L 924.38281 216.79102 L 924.37695 216.81055 C 922.22249 223.99215 919.19667 230.11035 915.31836 235.22266 C 911.44604 240.32709 906.83657 244.23266 901.42188 247.02734 C 896.02566 249.8125 890.24442 251.19727 883.93945 251.19727 C 879.17034 251.19727 873.52027 249.9904 867.04102 247.4707 C 860.97451 245.1115 854.2303 239.31407 846.95898 233.54492 L 846.95898 159.45117 C 854.67085 152.87918 861.86475 146.64366 868.42773 143.18945 L 868.4375 143.18359 L 868.44922 143.17773 C 875.40379 139.43298 881.93936 137.63281 888.12305 137.63281 z M 1031.498 137.63281 L 1031.498 137.63477 C 1037.803 137.63477 1043.5842 139.0215 1048.9805 141.80664 L 1049.0273 141.82812 L 1049.0703 141.84961 C 1054.6411 144.46094 1059.3042 148.25437 1063.1562 153.33203 L 1063.1855 153.37305 L 1063.2168 153.41016 C 1067.268 158.34196 1070.467 164.27216 1072.7969 171.26172 C 1075.1118 178.20666 1076.2871 186.00771 1076.2871 194.69531 C 1076.2871 203.19195 1075.114 210.89828 1072.7969 217.84961 C 1070.467 224.83917 1067.268 230.76741 1063.2168 235.69922 L 1063.1992 235.72266 L 1063.1836 235.74609 C 1059.3286 240.65246 1054.6375 244.47327 1049.0273 247.28125 C 1043.6257 249.8924 1037.8219 251.19727 1031.498 251.19727 C 1025.1814 251.19727 1019.3827 249.89424 1013.9863 247.28906 C 1008.5605 244.48375 1003.8494 240.64792 999.79492 235.7168 C 995.92453 230.78379 992.81056 224.84577 990.47852 217.84961 C 988.16141 210.89829 986.98633 203.19195 986.98633 194.69531 C 986.98633 186.00772 988.16352 178.20666 990.47852 171.26172 C 992.81313 164.25784 995.9303 158.31318 999.80664 153.37695 L 999.81055 153.37305 C 999.81155 153.37091 999.81339 153.36737 999.81445 153.36523 C 1003.8692 148.25571 1008.5606 144.44325 1013.9531 141.83398 L 1013.9844 141.81836 L 1014.0137 141.80469 C 1019.4099 139.01955 1025.1931 137.63281 1031.498 137.63281 z "
       transform="matrix(0.93749996,0,0,0.93749996,-770.31817,69.494271)"
       id="path902" />
  </g>
</svg>
